<svg viewBox="0 0 800 800" xmlns="http://www.w3.org/2000/svg"><path d="M639.2429010940186,307.3222783232562 L639.4287196046957,215.0441165134579 M159.56134262674803,584.2665552296343 L159.37378100681607,491.7724914071669 M639.2429010940186,307.3222783232562 L669.6876873365673,327.3803021965213 M669.6876873365673,327.3803021965213 L695.1378701042559,349.64892497757614 M695.1378701042559,349.64892497757614 L715.116008713373,373.717812695688 M715.116008713373,373.717812695688 L729.2447307405259,399.14237492836344 M729.2447307405259,399.14237492836344 L737.2539259366038,425.451869292458 M737.2539259366038,425.451869292458 L738.986445950434,452.157855275273 M738.986445950434,452.157855275273 L734.4016015451932,478.7632143085814 M734.4016015451932,478.7632143085814 L723.5764769973614,504.7713674479444 M723.5764769973614,504.7713674479444 L706.7051856096111,529.6956122249956 M706.7051856096111,529.6956122249956 L684.0957758481466,553.0683395985277 M684.0957758481466,553.0683395985277 L656.1649443631723,574.4499800068343 M656.1649443631723,574.4499800068343 L623.4306726342927,593.4375225659351 M623.4306726342927,593.4375225659351 L586.5026980367443,609.6723564456543 M586.5026980367443,609.6723564456543 L546.0711718613995,622.8473115996488 M546.0711718613995,622.8473115996488 L502.89366644102296,632.7127681681499 M502.89366644102296,632.7127681681499 L457.7806994109766,639.0815846190678 M457.7806994109766,639.0815846190678 L411.5801894011211,641.8328450435065 M411.5801894011211,641.8328450435065 L365.16111771951944,640.9143057565399 M365.16111771951944,640.9143057565399 L319.3966865231926,636.3434008422851 M319.3966865231926,636.3434008422851 L275.1474393840934,628.2069320847999 M275.1474393840934,628.2069320847999 L233.24454898351382,616.6593381623654 M233.24454898351382,616.6593381623654 L194.47399525463044,601.9195096380395 M194.47399525463044,601.9195096380395 L159.56134262674803,584.2665552296343 M639.4287196046957,215.0441165134579 L669.8972193644217,235.08643589211246 M669.8972193644217,235.08643589211246 L695.3672589579894,257.3376357361196 M695.3672589579894,257.3376357361196 L715.3610226551386,281.3877066096097 M715.3610226551386,281.3877066096097 L729.5008388276008,306.79240863518737 M729.5008388276008,306.79240863518737 L737.5163798599469,333.0813693726099 M737.5163798599469,333.0813693726099 L739.250366829883,359.7665308370343 M739.250366829883,359.7665308370343 L734.662070054449,386.3511624069832 M734.662070054449,386.3511624069832 L723.8286251617376,412.3390712828427 M723.8286251617376,412.3390712828427 L706.944288668459,437.243932128056 M706.944288668459,437.243932128056 L684.3173422992695,460.5984970009809 M684.3173422992695,460.5984970009809 L656.364802383594,481.9635346858892 M656.364802383594,481.9635346858892 L623.6050511250814,500.9363435710751 M623.6050511250814,500.9363435710751 L586.6483004417528,517.1585872777229 M586.6483004417528,517.1585872777229 L546.1852411690681,530.3233302840578 M546.1852411690681,530.3233302840578 L502.9740399026776,540.181142936598 M502.9740399026776,540.181142936598 L457.82585165144167,546.5450260801866 M457.82585165144167,546.5450260801866 L411.5892629457474,549.2941556976061 M411.5892629457474,549.2941556976061 L365.13394021171985,548.3763277825042 M365.13394021171985,548.3763277825042 L319.3337741775883,543.8089631797691 M319.3337741775883,543.8089631797691 L275.049986633332,535.678797731711 M275.049986633332,535.678797731711 L233.11440448672352,524.1401526910236 M233.11440448672352,524.1401526910236 L194.31362504769606,509.4117519693199 M194.31362504769606,509.4117519693199 L159.37378100681607,491.7724914071669 M159.56134262674803,584.2665552296343 L129.15806301629993,564.0341871108773 M129.15806301629993,564.0341871108773 L103.82931833598684,541.6041508555546 M103.82931833598684,541.6041508555546 L84.04354272920557,517.3987515236042 M84.04354272920557,517.3987515236042 L70.16384135516103,491.8727039273542 M70.16384135516103,491.8727039273542 L62.4418563277527,465.5042768161664 M62.4418563277527,465.5042768161664 L61.013435096915885,438.78628140471955 M61.013435096915885,438.78628140471955 L65.89671360937456,412.2167269317166 M65.89671360937456,412.2167269317166 L76.9924743288675,386.28953694139244 M76.9924743288675,386.28953694139244 L94.08653237713452,361.4854093972978 M94.08653237713452,361.4854093972978 L116.85431779583291,338.2630450223595 M116.85431779583291,338.2630450223595 L144.86738764772713,317.05086178811075 M144.86738764772713,317.05086178811075 L177.60166102068487,298.23930286677876 M177.60166102068487,298.23930286677876 L214.44740006077853,282.17392720319697 M214.44740006077853,282.17392720319697 L254.72055209165487,269.14933668228207 M254.72055209165487,269.14933668228207 L297.67529062712333,259.4039992551508 M297.67529062712333,259.4039992551508 L342.5176195892939,253.11614754066858 M342.5176195892939,253.11614754066858 L388.4196924759963,250.4006923989204 M388.4196924759963,250.4006923989204 L434.53466211707337,251.307222059978 M434.53466211707337,251.307222059978 L480.01188059407053,255.8191929958633 M480.01188059407053,255.8191929958633 L524.0121059789267,263.85417445045374 M524.0121059789267,263.85417445045374 L565.7226340461636,275.2652551170911 M565.7226340461636,275.2652551170911 L604.3717519320137,289.8436687157176 M604.3717519320137,289.8436687157176 L639.2429010940186,307.3222783232562 M159.37378100681607,491.7724914071669 L128.94685252328924,471.5558280975224 M128.94685252328924,471.5558280975224 L103.59844014418672,449.14321507113465 M103.59844014418672,449.14321507113465 L83.79733903233137,424.95663283119615 M83.79733903233137,424.95663283119615 L69.90693133208941,399.4504456262756 M69.90693133208941,399.4504456262756 L62.1790477620105,373.1025522488675 M62.1790477620105,373.1025522488675 L60.74963317011708,346.405381377649 M60.74963317011708,346.405381377649 L65.63682882594946,319.85655430291024 M65.63682882594946,319.85655430291024 L76.74133137240608,293.94960842901645 M76.74133137240608,293.94960842901645 L93.84878145853469,269.1648645988785 M93.84878145853469,269.1648645988785 L116.63435013733681,245.96066245233692 M116.63435013733681,245.96066245233692 L144.6692564985725,224.7650816354198 M144.6692564985725,224.7650816354198 L177.42900940628846,205.96825607094618 M177.42900940628846,205.96825607094618 L214.3033964622796,189.91547027590337 M214.3033964622796,189.91547027590337 L254.6078349428324,176.9010916330599 M254.6078349428324,176.9010916330599 L297.5959223912821,167.16339790695446 M297.5959223912821,167.16339790695446 L342.4730510866471,160.88047935514118 M342.4730510866471,160.88047935514118 L388.41073788660657,158.1671549564935 M388.41073788660657,158.1671549564935 L434.56148497490597,159.07297326712188 M434.56148497490597,159.07297326712188 L480.0739909881594,163.5814039967315 M480.0739909881594,163.5814039967315 L524.1083689556283,171.610082323344 M524.1083689556283,171.610082323344 L565.8512891880216,183.0122143527329 M565.8512891880216,183.0122143527329 L604.5304436639221,197.5792004384661 M604.5304436639221,197.5792004384661 L639.4287196046957,215.0441165134579 M228.36184090058936,544.5445690308516 L228.22804725321663,452.08134843399597 M570.9906118383715,346.7277558978125 L571.1235161490345,254.4187514339469 M228.36184090058936,544.5445690308516 L203.68567650964644,527.8031445615196 M203.68567650964644,527.8031445615196 L183.86238618143074,509.04227301020387 M183.86238618143074,509.04227301020387 L169.37710302764094,488.72726132134324 M169.37710302764094,488.72726132134324 L160.58182909882797,467.3610018937239 M160.58182909882797,467.3610018937239 L157.68729603391753,445.47131512005444 M157.68729603391753,445.47131512005444 L160.75829213508197,423.5977647064047 M160.75829213508197,423.5977647064047 L169.71275585130564,402.2783348649014 M169.71275585130564,402.2783348649014 L184.3243729559316,382.03626203416593 M184.3243729559316,382.03626203416593 L204.2287748931097,363.36729889394167 M204.2287748931097,363.36729889394167 L228.93288885215196,346.72775589781253 M228.93288885215196,346.72775589781253 L257.82743588496,332.5236439344776 M257.82743588496,332.5236439344776 L290.20195337579975,321.1009887789055 M290.20195337579975,321.1009887789055 L325.26227457605125,312.7377159450321 M325.26227457605125,312.7377159450321 L362.1497069217907,307.63709101769456 M362.1497069217907,307.63709101769456 L399.96175034526186,305.923012209849 M399.96175034526186,305.923012209849 L437.773793768733,307.63709101769456 M437.773793768733,307.63709101769456 L474.6612261144725,312.7377159450321 M474.6612261144725,312.7377159450321 L509.721547314724,321.1009887789055 M509.721547314724,321.1009887789055 L542.0960648055636,332.5236439344777 M542.0960648055636,332.5236439344777 L570.9906118383715,346.7277558978125 M228.22804725321663,452.08134843399597 L203.5326863927559,435.35293569175127 M203.5326863927559,435.35293569175127 L183.69399774267652,416.60665414637504 M183.69399774267652,416.60665414637504 L169.197488889409,396.30745149536466 M169.197488889409,396.30745149536466 L160.3954310107311,374.95783085309455 M160.3954310107311,374.95783085309455 L157.49871367206057,353.08520288876963 M157.49871367206057,353.08520288876963 L160.57216886565897,331.2287112551225 M160.57216886565897,331.2287112551225 L169.53366444974603,309.9259201138535 M169.53366444974603,309.9259201138535 L184.15670400338692,289.69965618851313 M184.15670400338692,289.69965618851313 L204.07663058419885,271.04528288752374 M204.07663058419885,271.04528288752374 L228.79998454148904,254.41875143394708 M228.79998454148904,254.41875143394708 L257.7170116530002,240.22575233282063 M257.7170116530002,240.22575233282063 L290.116697382641,228.81203774928906 M290.116697382641,228.81203774928906 L325.20425991052286,220.45531306159597 M325.20425991052286,220.45531306159597 L362.1203430752819,215.35868264282078 M362.1203430752819,215.35868264282078 L399.96175034526186,213.6459463534757 M399.96175034526186,213.6459463534757 L437.8031576152418,215.35868264282078 M437.8031576152418,215.35868264282078 L474.71924078000086,220.45531306159597 M474.71924078000086,220.45531306159597 L509.8068033078826,228.81203774928906 M509.8068033078826,228.81203774928906 L542.2064890375236,240.22575233282072 M542.2064890375236,240.22575233282072 L571.1235161490345,254.4187514339469 M570.9906118383715,346.7277558978125 L595.6947257974141,363.3672988939418 M595.6947257974141,363.3672988939418 L615.599127734592,382.03626203416604 M615.599127734592,382.03626203416604 L630.210744839218,402.2783348649015 M630.210744839218,402.2783348649015 L639.1652085554417,423.5977647064048 M639.1652085554417,423.5977647064048 L642.2362046566063,445.47131512005444 M642.2362046566063,445.47131512005444 L639.3416715916958,467.36100189372394 M639.3416715916958,467.36100189372394 L630.5463976628828,488.72726132134324 M630.5463976628828,488.72726132134324 L616.0611145090929,509.04227301020387 M616.0611145090929,509.04227301020387 L596.2378241808774,527.8031445615196 M596.2378241808774,527.8031445615196 L571.5616597899348,544.5445690308513 M571.5616597899348,544.5445690308513 L542.6391641214004,558.8505626155405 M542.6391641214004,558.8505626155405 L510.18353559783714,570.3651267000888 M510.18353559783714,570.3651267000888 L474.9968804467494,578.8013389304981 M474.9968804467494,578.8013389304981 L437.9502577373605,583.948793910488 M437.9502577373605,583.948793910488 L399.96175034526186,585.6790092386804 M399.96175034526186,585.6790092386804 L361.97324295316326,583.948793910488 M361.97324295316326,583.948793910488 L324.9266202437743,578.8013389304981 M324.9266202437743,578.8013389304981 L289.7399650926866,570.3651267000888 M289.7399650926866,570.3651267000888 L257.28433656912324,558.8505626155405 M257.28433656912324,558.8505626155405 L228.36184090058936,544.5445690308516 M571.1235161490345,254.4187514339469 L595.8468701063248,271.0452828875238 M595.8468701063248,271.0452828875238 L615.7667966871368,289.69965618851313 M615.7667966871368,289.69965618851313 L630.3898362407776,309.9259201138535 M630.3898362407776,309.9259201138535 L639.3513318248647,331.22871125512256 M639.3513318248647,331.22871125512256 L642.4247870184631,353.08520288876963 M642.4247870184631,353.08520288876963 L639.5280696797927,374.95783085309455 M639.5280696797927,374.95783085309455 L630.7260118011147,396.30745149536466 M630.7260118011147,396.30745149536466 L616.2295029478473,416.60665414637504 M616.2295029478473,416.60665414637504 L596.3908142977677,435.3529356917513 M596.3908142977677,435.3529356917513 L571.6954534373074,452.0813484339958 M571.6954534373074,452.0813484339958 L542.7504341642464,466.37622897221377 M542.7504341642464,466.37622897221377 L510.26951108190804,477.8818523187292 M510.26951108190804,477.8818523187292 L475.0554178536528,486.31151627138354 M475.0554178536528,486.31151627138354 L437.97989640544967,491.45497665840855 M437.97989640544967,491.45497665840855 L399.96175034526186,493.18384943903055 M399.96175034526186,493.18384943903055 L361.94360428507406,491.45497665840855 M361.94360428507406,491.45497665840855 L324.86808283687094,486.31151627138354 M324.86808283687094,486.31151627138354 L289.6539896086157,477.8818523187292 M289.6539896086157,477.8818523187292 L257.1730665262773,466.37622897221377 M257.1730665262773,466.37622897221377 L228.22804725321663,452.08134843399597" stroke="black"  stroke-width="4"  fill="red"/></svg>